# xmcd CD database file
#
# Track frame offsets:
#	150
#	18050
#	37155
#	52059
#	75018
#	105143
#	121208
#	148309
#	154340
#	186221
#	216698
#	237173
#	254743
#	277867
#	288046
#
# Disc length: 4036 seconds
#
# Revision: 0
# Processed by: cddbd v1.5.2PL0 Copyright (c) Steve Scherf et al.
# Submitted via: CDex 1.51
#
DISCID=d10fc20f
DTITLE=Anders Jormin - Aviaja
DYEAR=2005
DGENRE=Jazz
TTITLE0=Duo
TTITLE1=Madeins Blush
TTITLE2=Re-grezz
TTITLE3=El Mayor
TTITLE4=Var o'en
TTITLE5=Olivia
TTITLE6=Aamos
TTITLE7=Elder and Honey
TTITLE8=May 11th
TTITLE9=So close
TTITLE10=Too much nightlife
TTITLE11=T
TTITLE12=Nadjezda
TTITLE13=Everywhere
TTITLE14=Aviaja
EXTD=YEAR: 2005
EXTT0=
EXTT1=
EXTT2=
EXTT3=
EXTT4=
EXTT5=
EXTT6=
EXTT7=
EXTT8=
EXTT9=
EXTT10=
EXTT11=
EXTT12=
EXTT13=
EXTT14=
PLAYORDER=
